<svg id="Layer_1" xmlns="http://www.w3.org/2000/svg" viewBox="0 0 277.8 45"><path d="M93.3 10.3h-2.8c-.9 0-1.8.3-2.6.9L67.7 25.9 54.5 11.2c-.6-.6-1.2-.9-2-.9h-2.7c-.6 0-1 .3-1.1.9l-4.3 21.7c-.1.2-.1.3 0 .5.1.3.3.4.8.4h3.2c.6 0 1-.3 1.1-.9l1.7-8.7 9.2 8.7c.3.3.7.6 1.1.7.4.1.7.2 1.1.2h2c.3 0 .7-.1 1.1-.2.4-.1.8-.4 1.2-.7l11.5-8.7-1.8 8.7v.5c.1.3.3.4.8.4h11.4c.6 0 1-.3 1.1-.9l4.3-21.7v-.4c-.2-.3-.5-.5-.9-.5zm40.4 4.5c-.5-.9-1.2-1.7-2-2.3-.8-.7-1.7-1.2-2.7-1.5-1-.4-2.1-.6-3.4-.6h-16.9c-1.5 0-3 .2-4.4.6-1.4.4-2.6 1-3.8 1.7-1.1.7-2.1 1.6-3 2.6-.9 1-1.6 2.1-2.1 3.3-.5 1.2-.9 2.5-1 3.8-.1 1.3 0 2.6.3 4 .3 1.1.7 2 1.2 3 .5.9 1.2 1.7 2 2.4s1.7 1.2 2.7 1.6c1 .4 2.1.6 3.3.6h16.9c1.5 0 2.9-.2 4.3-.6 1.4-.4 2.6-1 3.8-1.8 1.2-.7 2.2-1.6 3-2.7.9-1 1.6-2.1 2.1-3.3.5-1.2.9-2.5 1-3.8.1-1.3.1-2.7-.3-4-.1-1.2-.5-2.1-1-3zm-12.1 2.9c-.1.6-.2 1.3-.3 2.1l-.7 3.8c-.2 1.2-.5 2.2-.8 3-.3.8-.7 1.5-1.1 1.9-.4.5-.9.8-1.5 1.1-.5.2-1.2.3-1.9.3h-4.7c-.7 0-1.3-.1-1.8-.4-.5-.3-.8-.8-.9-1.4-.2-.9-.2-2.4.2-4.4l.7-3.8c.2-1 .4-1.9.7-2.6.3-.7.6-1.2 1-1.7.4-.4.8-.7 1.4-.9.5-.2 1.1-.3 1.8-.3h4.7c.9 0 1.6.1 2.2.4.5.3.9.7 1 1.4.1.4.1.9 0 1.5zm58.2-7.4h-4.5c-.6 0-1 .3-1.1.9l-2 10-24-10.3c-.7-.3-1.2-.5-1.7-.6-.5-.1-1.1-.1-1.8-.1h-3.9c-.6 0-1 .3-1.1.9l-4.3 21.7c-.1.2-.1.3 0 .5.1.3.3.4.8.4h4.5c.6 0 1-.3 1.1-.9l2-10.5L169.6 33c.7.3 1.3.5 1.8.6.5.1 1.1.1 1.8.1h2.1c.6 0 1-.3 1.1-.9l4.3-21.7c.1-.2.1-.3 0-.4-.2-.2-.4-.4-.9-.4zm79.6.4c-.1-.2-.2-.3-.5-.3h-2.3c-.3 0-.6 0-.9.1-.2.1-.5.3-.8.5l-11.6 10.1-7.1-10.1c-.3-.5-.8-.7-1.4-.7h-13.6c-.2 0-.4.1-.6.2-.2.1-.3.3-.2.6 0 0 0 .1.1.2 0 .1.1.2.1.2l9.8 13.2-1.7 8.2v.5c.1.3.3.4.7.4h11.9c.3 0 .5-.1.7-.2.2-.1.3-.4.4-.7l1.6-8.4 15.1-13.2c.3-.2.4-.4.3-.6zM45.5 13.5l.4-2c.1-.3 0-.6-.2-.8-.2-.2-.4-.3-.7-.3H21.5c-2.2 0-4.4.9-6.3 2.4-.4.3-.7.6-.9.9-1.5 1.6-2.6 3.6-3 5.7l-1 5.4c-.2.9-.2 1.8-.1 2.7.4 3.8 3.3 6.3 7.1 6.3h23.4c.6 0 1.1-.5 1.3-1.1l.4-2c.1-.3 0-.6-.2-.8-.2-.2-.4-.3-.7-.3H22.9c-.5 0-.9-.2-1.2-.5-.3-.3-.4-.8-.4-1.3v-.2l.7-3.5h17.9c.5 0 1-.4 1.1-.9l.4-2.3c.1-.3 0-.5-.2-.7-.1-.2-.3-.3-.6-.3H22.8l.1-.8.4-2.1c.2-1.1 1.3-2.1 2.4-2.1h18.6c.5-.3 1.1-.8 1.2-1.4zm170.9-3.2H193c-2.2 0-4.4.9-6.3 2.4-.4.1-.7.5-.9.9-1.5 1.6-2.6 3.6-3 5.7l-1 5.4c-.2.9-.2 1.8-.1 2.7.4 3.8 3.3 6.3 7.1 6.3h23.4c.6 0 1.1-.5 1.3-1.1l.4-2c.1-.3 0-.6-.2-.8-.2-.2-.4-.3-.7-.3h-18.6c-.5 0-.9-.2-1.2-.5-.3-.3-.4-.8-.4-1.3v-.2l.7-3.5h17.9c.5 0 1-.4 1.1-.9l.4-2.3c.1-.3 0-.5-.2-.7-.1-.2-.3-.3-.6-.3h-17.8l.1-.8.4-2.1c.2-1.1 1.3-2.1 2.4-2.1h18.6c.6 0 1.1-.5 1.3-1.1l.4-2c.1-.3 0-.6-.2-.8-.3-.5-.6-.6-.9-.6zm56.6 3.6c0 2.4-1.9 4.3-4.4 4.3-2.4 0-4.4-1.9-4.4-4.3s1.9-4.3 4.4-4.3c2.5 0 4.4 1.9 4.4 4.3zm-7.6 0c0 1.9 1.4 3.4 3.3 3.4s3.3-1.5 3.3-3.4-1.4-3.4-3.3-3.4-3.3 1.5-3.3 3.4zm2.6 2.2h-1v-4.3c.4-.1.9-.1 1.6-.1.8 0 1.2.1 1.5.3.2.2.4.5.4.9 0 .5-.4.8-.9 1v.1c.4.2.7.5.8 1 .1.6.2.9.3 1.1h-1.1c-.1-.2-.2-.5-.3-1-.1-.5-.3-.7-.9-.7h-.4v1.7zm0-2.4h.5c.5 0 1-.2 1-.6 0-.4-.3-.6-.9-.6-.3 0-.4 0-.5.1v1.1z" fill="#001f4b"/></svg>